<svg width="28" height="28" viewBox="0 0 28 28" fill="none" xmlns="http://www.w3.org/2000/svg">
<path d="M1.68042 26.9858H4.82222C5.43964 26.9858 5.94222 26.4835 5.94222 25.8658V25.45C6.6388 25.7093 7.38214 25.8505 8.13628 25.8505H17.1636C18.4657 25.8505 19.7628 25.5366 20.9146 24.9429L26.2422 22.1979C27.3517 21.6206 27.7691 20.2916 27.1571 19.2139C26.5616 18.1847 25.2043 17.795 24.1149 18.3353L21.83 19.1613V10.2342C21.83 9.30779 21.0764 8.5542 20.15 8.5542H17.8767V7.50516C19.3842 7.14499 20.1865 5.41123 19.3751 4.0042L17.7985 1.2742C17.5983 0.927481 17.0285 0.927481 16.8283 1.2742L15.2522 4.0042C14.4401 5.41201 15.2437 7.14938 16.7567 7.50639V8.5542H14.4773C13.5509 8.5542 12.7973 9.30779 12.7973 10.2342V17.0109C12.7129 17.0118 12.6283 17.0119 12.5441 17.013C9.22554 17.0526 9.35074 16.3425 8.78707 16.1476C7.92164 15.6034 6.94628 15.2725 5.94222 15.1509V14.1143C5.94222 13.4966 5.43964 12.9943 4.82222 12.9943H1.68042C1.063 12.9943 0.560425 13.4966 0.560425 14.1143V25.8658C0.560425 26.4835 1.063 26.9858 1.68042 26.9858ZM16.2224 4.5642L17.3134 2.6742L18.405 4.56392C18.889 5.404 18.2846 6.4542 17.3134 6.4542C16.3425 6.4542 15.7373 5.40346 16.2224 4.5642ZM14.4773 9.6742H20.15C20.459 9.6742 20.71 9.92549 20.71 10.2342V19.5662L19.4396 20.0254C19.1125 20.1423 18.677 20.2479 18.1829 20.3411V19.8699C18.1829 18.2919 16.8989 17.0081 15.3211 17.0081H13.9173V10.2342C13.9173 9.92549 14.1683 9.6742 14.4773 9.6742ZM8.18386 17.0912C8.70987 17.2735 8.87417 18.1792 12.5578 18.1327C13.2615 18.1246 12.8709 18.1304 15.3211 18.1281C16.2814 18.1281 17.0629 18.9096 17.0629 19.8699V20.5191C15.7337 20.6982 14.2562 20.7993 13.2829 20.7993C12.9734 20.7993 12.7229 21.05 12.7229 21.3593C12.7229 21.6685 12.9734 21.9193 13.2829 21.9193C14.742 21.9193 18.1561 21.6732 19.8181 21.0795C19.8743 21.0592 24.5912 19.354 24.5272 19.3771C24.5502 19.3689 24.5726 19.3591 24.5939 19.3479C25.166 19.0523 25.8807 19.244 26.1853 19.7709C26.4831 20.2956 26.266 20.9232 25.7271 21.2031L20.4016 23.9474C19.4074 24.4598 18.2879 24.7305 17.1635 24.7305H8.13628C7.37066 24.7305 6.62185 24.5527 5.94222 24.2318V16.2748C6.73519 16.39 7.50273 16.6631 8.18386 17.0912ZM1.68042 14.1143H4.82222C4.82256 21.3642 4.82275 25.5033 4.82277 25.8658H1.68042V14.1143Z" fill="#8B0000"/>
</svg>
