<svg width="28" height="28" viewBox="0 0 28 28" fill="none" xmlns="http://www.w3.org/2000/svg">
<path d="M23.24 22.5199H23.64V22.1199V2.5199V2.1199H23.24H7.56001H7.16001V2.5199V22.1199V22.5199H7.56001H23.24ZM6.84001 2.5199V2.1199H6.44001H5.88001C5.0431 2.1199 4.36001 2.80299 4.36001 3.6399V22.4279V23.1243L4.96156 22.7734C5.24213 22.6098 5.5372 22.5199 5.88001 22.5199H6.44001H6.84001V22.1199V2.5199ZM23.24 25.8799H23.64V25.4799V23.2399V22.8399H23.24H5.88001C5.0431 22.8399 4.36001 23.523 4.36001 24.3599C4.36001 25.1968 5.0431 25.8799 5.88001 25.8799H23.24ZM5.88001 1.7999H23.8C23.8871 1.7999 23.96 1.87282 23.96 1.9599V26.0399C23.96 26.127 23.8871 26.1999 23.8 26.1999H5.88001C4.86893 26.1999 4.04001 25.371 4.04001 24.3599V3.6399C4.04001 2.62882 4.86893 1.7999 5.88001 1.7999ZM19.48 18.1999C19.48 18.287 19.4071 18.3599 19.32 18.3599H11.48C11.3929 18.3599 11.32 18.287 11.32 18.1999C11.32 18.1128 11.3929 18.0399 11.48 18.0399H19.32C19.4071 18.0399 19.48 18.1128 19.48 18.1999Z" stroke="#8B0000" stroke-width="0.8"/>
</svg>
