<svg width="28" height="28" viewBox="0 0 28 28" fill="none" xmlns="http://www.w3.org/2000/svg">
<path d="M16.1875 20.125C16.0715 20.125 15.9602 20.1711 15.8781 20.2531C15.7961 20.3352 15.75 20.4465 15.75 20.5625C15.75 20.6785 15.7961 20.7898 15.8781 20.8719C15.9602 20.9539 16.0715 21 16.1875 21C16.3035 21 16.4148 20.9539 16.4969 20.8719C16.5789 20.7898 16.625 20.6785 16.625 20.5625C16.625 20.4465 16.5789 20.3352 16.4969 20.2531C16.4148 20.1711 16.3035 20.125 16.1875 20.125ZM17.9375 20.125C17.8215 20.125 17.7102 20.1711 17.6281 20.2531C17.5461 20.3352 17.5 20.4465 17.5 20.5625C17.5 20.6785 17.5461 20.7898 17.6281 20.8719C17.7102 20.9539 17.8215 21 17.9375 21C18.0535 21 18.1648 20.9539 18.2469 20.8719C18.3289 20.7898 18.375 20.6785 18.375 20.5625C18.375 20.4465 18.3289 20.3352 18.2469 20.2531C18.1648 20.1711 18.0535 20.125 17.9375 20.125ZM19.6875 21C19.8035 21 19.9148 20.9539 19.9969 20.8719C20.0789 20.7898 20.125 20.6785 20.125 20.5625C20.125 20.4465 20.0789 20.3352 19.9969 20.2531C19.9148 20.1711 19.8035 20.125 19.6875 20.125C19.5715 20.125 19.4602 20.1711 19.3781 20.2531C19.2961 20.3352 19.25 20.4465 19.25 20.5625C19.25 20.6785 19.2961 20.7898 19.3781 20.8719C19.4602 20.9539 19.5715 21 19.6875 21ZM21.4375 1.75H6.5625C5.98255 1.75069 5.42656 1.98139 5.01647 2.39147C4.60639 2.80156 4.37569 3.35755 4.375 3.9375V24.0625C4.375 25.2691 5.35588 26.25 6.5625 26.25H21.4375C21.5535 26.25 21.6648 26.2039 21.7469 26.1219C21.8289 26.0398 21.875 25.9285 21.875 25.8125V2.1875C21.875 2.07147 21.8289 1.96019 21.7469 1.87814C21.6648 1.79609 21.5535 1.75 21.4375 1.75ZM21 23.625H6.5625C6.44647 23.625 6.33519 23.6711 6.25314 23.7531C6.17109 23.8352 6.125 23.9465 6.125 24.0625C6.125 24.1785 6.17109 24.2898 6.25314 24.3719C6.33519 24.4539 6.44647 24.5 6.5625 24.5H21V25.375H6.5625C6.2227 25.3626 5.90095 25.2189 5.66494 24.9741C5.42893 24.7293 5.29706 24.4025 5.29706 24.0625C5.29706 23.7225 5.42893 23.3957 5.66494 23.1509C5.90095 22.9061 6.2227 22.7624 6.5625 22.75H21V23.625ZM21 21.875H6.5625C6.06813 21.875 5.61662 22.0456 5.25 22.323V3.9375C5.25 3.21387 5.83887 2.625 6.5625 2.625H21V21.875ZM8.3125 9.625H17.9375C18.0535 9.625 18.1648 9.57891 18.2469 9.49686C18.3289 9.41481 18.375 9.30353 18.375 9.1875V4.8125C18.375 4.69647 18.3289 4.58519 18.2469 4.50314C18.1648 4.42109 18.0535 4.375 17.9375 4.375H8.3125C8.19647 4.375 8.08519 4.42109 8.00314 4.50314C7.92109 4.58519 7.875 4.69647 7.875 4.8125V9.1875C7.875 9.30353 7.92109 9.41481 8.00314 9.49686C8.08519 9.57891 8.19647 9.625 8.3125 9.625ZM8.75 5.25H17.5V8.75H8.75V5.25ZM16.1875 14.4375C16.1875 13.7139 15.5986 13.125 14.875 13.125H14.4375V12.6875C14.4375 11.9639 13.8486 11.375 13.125 11.375C12.4014 11.375 11.8125 11.9639 11.8125 12.6875V13.125H11.375C10.6514 13.125 10.0625 13.7139 10.0625 14.4375C10.0625 15.1611 10.6514 15.75 11.375 15.75H11.8125V18.8125C11.8125 19.5361 12.4014 20.125 13.125 20.125C13.8486 20.125 14.4375 19.5361 14.4375 18.8125V15.75H14.875C15.5986 15.75 16.1875 15.162 16.1875 14.4375ZM14.875 14.875H14C13.884 14.875 13.7727 14.9211 13.6906 15.0031C13.6086 15.0852 13.5625 15.1965 13.5625 15.3125V18.8125C13.5625 19.0531 13.3656 19.25 13.125 19.25C12.8844 19.25 12.6875 19.0531 12.6875 18.8125V15.3125C12.6875 15.1965 12.6414 15.0852 12.5594 15.0031C12.4773 14.9211 12.366 14.875 12.25 14.875H11.375C11.1344 14.875 10.9375 14.6781 10.9375 14.4375C10.9375 14.1969 11.1344 14 11.375 14H12.25C12.366 14 12.4773 13.9539 12.5594 13.8719C12.6414 13.7898 12.6875 13.6785 12.6875 13.5625V12.6875C12.6875 12.4469 12.8844 12.25 13.125 12.25C13.3656 12.25 13.5625 12.4469 13.5625 12.6875V13.5625C13.5625 13.6785 13.6086 13.7898 13.6906 13.8719C13.7727 13.9539 13.884 14 14 14H14.875C15.1156 14 15.3125 14.1969 15.3125 14.4375C15.3125 14.6781 15.1156 14.875 14.875 14.875Z" fill="#4C4C4C"/>
</svg>
